<?xml version="1.0" encoding="utf-8"?>
<!-- Generator: Circuit Diagram, cdlibrary.dll 1.0.0.0 -->
<!DOCTYPE svg PUBLIC "-//W3C//DTD SVG 1.1//EN" "http://www.w3.org/Graphics/SVG/1.1/DTD/svg11.dtd">
<svg version="1.1" width="560" height="260" xmlns="http://www.w3.org/2000/svg">
	<line x1="510" y1="150" x2="530" y2="150" style="stroke:rgb(0, 0, 0);stroke-linecap:square;stroke-width:2" />
	<line x1="530" y1="50" x2="530" y2="150" style="stroke:rgb(0, 0, 0);stroke-linecap:square;stroke-width:2" />
	<line x1="450" y1="50" x2="530" y2="50" style="stroke:rgb(0, 0, 0);stroke-linecap:square;stroke-width:2" />
	<line x1="340" y1="80" x2="340" y2="120" style="stroke:rgb(0, 0, 0);stroke-linecap:square;stroke-width:2" />
	<line x1="340" y1="80" x2="350" y2="80" style="stroke:rgb(0, 0, 0);stroke-linecap:square;stroke-width:2" />
	<line x1="330" y1="50" x2="450" y2="50" style="stroke:rgb(0, 0, 0);stroke-linecap:square;stroke-width:2" />
	<line x1="330" y1="50" x2="330" y2="80" style="stroke:rgb(0, 0, 0);stroke-linecap:square;stroke-width:2" />
	<line x1="340" y1="160" x2="340" y2="180" style="stroke:rgb(0, 0, 0);stroke-linecap:square;stroke-width:2" />
	<line x1="340" y1="180" x2="380" y2="180" style="stroke:rgb(0, 0, 0);stroke-linecap:square;stroke-width:2" />
	<line x1="340" y1="120" x2="340" y2="130" style="stroke:rgb(0, 0, 0);stroke-linecap:square;stroke-width:2" />
	<line x1="340" y1="120" x2="350" y2="120" style="stroke:rgb(0, 0, 0);stroke-linecap:square;stroke-width:2" />
	<line x1="350" y1="120" x2="380" y2="120" style="stroke:rgb(0, 0, 0);stroke-linecap:square;stroke-width:2" />
	<line x1="340" y1="130" x2="340" y2="150" style="stroke:rgb(0, 0, 0);stroke-linecap:square;stroke-width:2" />
	<line x1="510" y1="80" x2="510" y2="230" style="stroke:rgb(0, 0, 0);stroke-linecap:square;stroke-width:2" />
	<line x1="490" y1="230" x2="510" y2="230" style="stroke:rgb(0, 0, 0);stroke-linecap:square;stroke-width:2" />
	<line x1="320" y1="80" x2="330" y2="80" style="stroke:rgb(0, 0, 0);stroke-linecap:square;stroke-width:2" />
	<line x1="490" y1="80" x2="510" y2="80" style="stroke:rgb(0, 0, 0);stroke-linecap:square;stroke-width:2" />
	<line x1="460" y1="80" x2="461" y2="80" style="stroke:rgb(0, 0, 0);stroke-linecap:square;stroke-width:2" />
	<line x1="489" y1="80" x2="490" y2="80" style="stroke:rgb(0, 0, 0);stroke-linecap:square;stroke-width:2" />
	<ellipse cx="464" cy="80" rx="3" ry="3" style="fill-opacity:0;fill:rgb(0, 0, 0);stroke:rgb(0, 0, 0);stroke-width:2" />
	<ellipse cx="486" cy="80" rx="3" ry="3" style="fill-opacity:0;fill:rgb(0, 0, 0);stroke:rgb(0, 0, 0);stroke-width:2" />
	<line x1="463" y1="72" x2="487" y2="72" style="stroke:rgb(0, 0, 0);stroke-linecap:square;stroke-width:2" />
	<line x1="469" y1="66" x2="481" y2="66" style="stroke:rgb(0, 0, 0);stroke-linecap:square;stroke-width:2" />
	<line x1="475" y1="66" x2="475" y2="72" style="stroke:rgb(0, 0, 0);stroke-linecap:square;stroke-width:2" />
	<line x1="460" y1="230" x2="461" y2="230" style="stroke:rgb(0, 0, 0);stroke-linecap:square;stroke-width:2" />
	<line x1="489" y1="230" x2="490" y2="230" style="stroke:rgb(0, 0, 0);stroke-linecap:square;stroke-width:2" />
	<ellipse cx="464" cy="230" rx="3" ry="3" style="fill-opacity:0;fill:rgb(0, 0, 0);stroke:rgb(0, 0, 0);stroke-width:2" />
	<ellipse cx="486" cy="230" rx="3" ry="3" style="fill-opacity:0;fill:rgb(0, 0, 0);stroke:rgb(0, 0, 0);stroke-width:2" />
	<line x1="463" y1="222" x2="487" y2="222" style="stroke:rgb(0, 0, 0);stroke-linecap:square;stroke-width:2" />
	<line x1="469" y1="216" x2="481" y2="216" style="stroke:rgb(0, 0, 0);stroke-linecap:square;stroke-width:2" />
	<line x1="475" y1="216" x2="475" y2="222" style="stroke:rgb(0, 0, 0);stroke-linecap:square;stroke-width:2" />
	<line x1="340" y1="230" x2="460" y2="230" style="stroke:rgb(0, 0, 0);stroke-linecap:square;stroke-width:2" />
	<line x1="340" y1="180" x2="340" y2="230" style="stroke:rgb(0, 0, 0);stroke-linecap:square;stroke-width:2" />
	<line x1="350" y1="80" x2="460" y2="80" style="stroke:rgb(0, 0, 0);stroke-linecap:square;stroke-width:2" />
	<line x1="430" y1="180" x2="430" y2="202" style="stroke:rgb(0, 0, 0);stroke-linecap:square;stroke-width:2" />
	<path d="M 422,202 L 438,202 L 430,210 L 422,202" style="fill-opacity:0;fill:rgb(0, 0, 0);stroke:rgb(0, 0, 0);stroke-width:2" />
	<line x1="430" y1="120" x2="430" y2="142" style="stroke:rgb(0, 0, 0);stroke-linecap:square;stroke-width:2" />
	<path d="M 422,142 L 438,142 L 430,150 L 422,142" style="fill-opacity:0;fill:rgb(0, 0, 0);stroke:rgb(0, 0, 0);stroke-width:2" />
	<line x1="380" y1="180" x2="385" y2="180" style="stroke:rgb(0, 0, 0);stroke-linecap:square;stroke-width:2" />
	<rect x="385" y="172" width="40" height="16" style="fill-opacity:0;stroke:rgb(0, 0, 0);stroke-width:2" />
	<line x1="425" y1="180" x2="430" y2="180" style="stroke:rgb(0, 0, 0);stroke-linecap:square;stroke-width:2" />
	<text x="405" y="163" style="font-family:Arial;font-size:11px;text-anchor:middle" dy=".3em">10 kΩ</text>
	<line x1="380" y1="120" x2="385" y2="120" style="stroke:rgb(0, 0, 0);stroke-linecap:square;stroke-width:2" />
	<rect x="385" y="112" width="40" height="16" style="fill-opacity:0;stroke:rgb(0, 0, 0);stroke-width:2" />
	<line x1="425" y1="120" x2="430" y2="120" style="stroke:rgb(0, 0, 0);stroke-linecap:square;stroke-width:2" />
	<text x="405" y="103" style="font-family:Arial;font-size:11px;text-anchor:middle" dy=".3em">10 kΩ</text>
	<line x1="340" y1="160" x2="340" y2="160" style="stroke:rgb(0, 0, 0);stroke-linecap:square;stroke-width:2" />
	<line x1="320" y1="150" x2="340" y2="150" style="stroke:rgb(0, 0, 0);stroke-linecap:square;stroke-width:2" />
	<line x1="320" y1="160" x2="340" y2="160" style="stroke:rgb(0, 0, 0);stroke-linecap:square;stroke-width:2" />
	<line x1="30" y1="100" x2="40" y2="100" style="stroke:rgb(0, 0, 0);stroke-linecap:square;stroke-width:2" />
	<line x1="30" y1="100" x2="30" y2="108" style="stroke:rgb(0, 0, 0);stroke-linecap:square;stroke-width:2" />
	<path d="M 22,108 L 38,108 L 30,116 L 22,108" style="fill-opacity:0;fill:rgb(0, 0, 0);stroke:rgb(0, 0, 0);stroke-width:2" />
	<line x1="30" y1="150" x2="40" y2="150" style="stroke:rgb(0, 0, 0);stroke-linecap:square;stroke-width:2" />
	<line x1="30" y1="150" x2="30" y2="158" style="stroke:rgb(0, 0, 0);stroke-linecap:square;stroke-width:2" />
	<path d="M 22,158 L 38,158 L 30,166 L 22,158" style="fill-opacity:0;fill:rgb(0, 0, 0);stroke:rgb(0, 0, 0);stroke-width:2" />
	<line x1="90" y1="150" x2="40" y2="150" style="stroke:rgb(0, 0, 0);stroke-linecap:square;stroke-width:2" />
	<path d="M 58,150 M 58,142 L 58,158 M 58,150 L 73,158 L 73,142 L 58,150" style="fill-opacity:0;fill:rgb(0, 0, 0);stroke:rgb(0, 0, 0);stroke-width:2" />
	<path d="M 60,150 M 62,139 L 54,131 M 53,130 L 57,132 L 55,134 L 53,130 L 57,132" style="fill-opacity:0;fill:rgb(0, 0, 0);stroke:rgb(0, 0, 0);stroke-width:2" />
	<path d="M 60,150 M 56,146 L 48,138 M 47,137 L 51,139 L 49,141 L 47,137 L 51,139" style="fill-opacity:0;fill:rgb(0, 0, 0);stroke:rgb(0, 0, 0);stroke-width:2" />
	<line x1="90" y1="100" x2="40" y2="100" style="stroke:rgb(0, 0, 0);stroke-linecap:square;stroke-width:2" />
	<path d="M 58,100 M 58,92 L 58,108 M 58,100 L 73,108 L 73,92 L 58,100" style="fill-opacity:0;fill:rgb(0, 0, 0);stroke:rgb(0, 0, 0);stroke-width:2" />
	<path d="M 60,100 M 62,89 L 54,81 M 53,80 L 57,82 L 55,84 L 53,80 L 57,82" style="fill-opacity:0;fill:rgb(0, 0, 0);stroke:rgb(0, 0, 0);stroke-width:2" />
	<path d="M 60,100 M 56,96 L 48,88 M 47,87 L 51,89 L 49,91 L 47,87 L 51,89" style="fill-opacity:0;fill:rgb(0, 0, 0);stroke:rgb(0, 0, 0);stroke-width:2" />
	<line x1="90" y1="150" x2="95" y2="150" style="stroke:rgb(0, 0, 0);stroke-linecap:square;stroke-width:2" />
	<rect x="95" y="142" width="40" height="16" style="fill-opacity:0;stroke:rgb(0, 0, 0);stroke-width:2" />
	<line x1="135" y1="150" x2="140" y2="150" style="stroke:rgb(0, 0, 0);stroke-linecap:square;stroke-width:2" />
	<text x="115" y="133" style="font-family:Arial;font-size:11px;text-anchor:middle" dy=".3em">560 Ω</text>
	<line x1="90" y1="100" x2="95" y2="100" style="stroke:rgb(0, 0, 0);stroke-linecap:square;stroke-width:2" />
	<rect x="95" y="92" width="40" height="16" style="fill-opacity:0;stroke:rgb(0, 0, 0);stroke-width:2" />
	<line x1="135" y1="100" x2="140" y2="100" style="stroke:rgb(0, 0, 0);stroke-linecap:square;stroke-width:2" />
	<text x="115" y="83" style="font-family:Arial;font-size:11px;text-anchor:middle" dy=".3em">560 Ω</text>
	<line x1="140" y1="150" x2="160" y2="150" style="stroke:rgb(0, 0, 0);stroke-linecap:square;stroke-width:2" />
	<line x1="160" y1="130" x2="160" y2="150" style="stroke:rgb(0, 0, 0);stroke-linecap:square;stroke-width:2" />
	<line x1="160" y1="130" x2="200" y2="130" style="stroke:rgb(0, 0, 0);stroke-linecap:square;stroke-width:2" />
	<line x1="140" y1="100" x2="160" y2="100" style="stroke:rgb(0, 0, 0);stroke-linecap:square;stroke-width:2" />
	<line x1="160" y1="100" x2="160" y2="120" style="stroke:rgb(0, 0, 0);stroke-linecap:square;stroke-width:2" />
	<line x1="160" y1="120" x2="200" y2="120" style="stroke:rgb(0, 0, 0);stroke-linecap:square;stroke-width:2" />
	<line x1="140" y1="190" x2="150" y2="190" style="stroke:rgb(0, 0, 0);stroke-linecap:square;stroke-width:2" />
	<line x1="140" y1="190" x2="140" y2="198" style="stroke:rgb(0, 0, 0);stroke-linecap:square;stroke-width:2" />
	<path d="M 132,198 L 148,198 L 140,206 L 132,198" style="fill-opacity:0;fill:rgb(0, 0, 0);stroke:rgb(0, 0, 0);stroke-width:2" />
	<line x1="150" y1="190" x2="160" y2="190" style="stroke:rgb(0, 0, 0);stroke-linecap:square;stroke-width:2" />
	<line x1="200" y1="190" x2="210" y2="190" style="stroke:rgb(0, 0, 0);stroke-linecap:square;stroke-width:2" />
	<line x1="160" y1="190" x2="166" y2="190" style="stroke:rgb(0, 0, 0);stroke-linecap:square;stroke-width:2" />
	<line x1="166" y1="190" x2="166" y2="196" style="stroke:rgb(0, 0, 0);stroke-linecap:square;stroke-width:2" />
	<line x1="194" y1="190" x2="200" y2="190" style="stroke:rgb(0, 0, 0);stroke-linecap:square;stroke-width:2" />
	<line x1="194" y1="190" x2="194" y2="196" style="stroke:rgb(0, 0, 0);stroke-linecap:square;stroke-width:2" />
	<path d="M 180,190 A 20,20 90 0 0 160,210 L 200,210 A 20,20 90 0 0 180,190" style="fill-opacity:0;fill:rgb(0, 0, 0);stroke:rgb(0, 0, 0);stroke-width:2" />
	<text x="260" y="30" style="font-family:Arial;font-size:11px;text-anchor:middle" dy=".3em">Arduino Nano v3</text>
	<rect x="210" y="40" width="100" height="160" style="fill-opacity:0;stroke:rgb(0, 0, 0);stroke-width:2" />
	<line x1="200" y1="50" x2="210" y2="50" style="stroke:rgb(0, 0, 0);stroke-linecap:square;stroke-width:2" />
	<text x="214" y="50" style="font-family:Arial;font-size:11px;text-anchor:start" dy=".3em">D1 TX</text>
	<line x1="310" y1="50" x2="320" y2="50" style="stroke:rgb(0, 0, 0);stroke-linecap:square;stroke-width:2" />
	<text x="306" y="50" style="font-family:Arial;font-size:11px;text-anchor:end" dy=".3em">Vin</text>
	<line x1="200" y1="60" x2="210" y2="60" style="stroke:rgb(0, 0, 0);stroke-linecap:square;stroke-width:2" />
	<text x="214" y="60" style="font-family:Arial;font-size:11px;text-anchor:start" dy=".3em">D0 RX</text>
	<line x1="310" y1="60" x2="320" y2="60" style="stroke:rgb(0, 0, 0);stroke-linecap:square;stroke-width:2" />
	<text x="306" y="60" style="font-family:Arial;font-size:11px;text-anchor:end" dy=".3em">GND</text>
	<line x1="200" y1="70" x2="210" y2="70" style="stroke:rgb(0, 0, 0);stroke-linecap:square;stroke-width:2" />
	<text x="214" y="70" style="font-family:Arial;font-size:11px;text-anchor:start" dy=".3em">RST</text>
	<line x1="310" y1="70" x2="320" y2="70" style="stroke:rgb(0, 0, 0);stroke-linecap:square;stroke-width:2" />
	<text x="306" y="70" style="font-family:Arial;font-size:11px;text-anchor:end" dy=".3em">RST</text>
	<line x1="200" y1="80" x2="210" y2="80" style="stroke:rgb(0, 0, 0);stroke-linecap:square;stroke-width:2" />
	<text x="214" y="80" style="font-family:Arial;font-size:11px;text-anchor:start" dy=".3em">GND</text>
	<line x1="310" y1="80" x2="320" y2="80" style="stroke:rgb(0, 0, 0);stroke-linecap:square;stroke-width:2" />
	<text x="306" y="80" style="font-family:Arial;font-size:11px;text-anchor:end" dy=".3em">5V</text>
	<line x1="200" y1="90" x2="210" y2="90" style="stroke:rgb(0, 0, 0);stroke-linecap:square;stroke-width:2" />
	<text x="214" y="90" style="font-family:Arial;font-size:11px;text-anchor:start" dy=".3em">D2</text>
	<line x1="310" y1="90" x2="320" y2="90" style="stroke:rgb(0, 0, 0);stroke-linecap:square;stroke-width:2" />
	<text x="306" y="90" style="font-family:Arial;font-size:11px;text-anchor:end" dy=".3em">A7</text>
	<line x1="200" y1="100" x2="210" y2="100" style="stroke:rgb(0, 0, 0);stroke-linecap:square;stroke-width:2" />
	<text x="214" y="100" style="font-family:Arial;font-size:11px;text-anchor:start" dy=".3em">D3</text>
	<line x1="310" y1="100" x2="320" y2="100" style="stroke:rgb(0, 0, 0);stroke-linecap:square;stroke-width:2" />
	<text x="306" y="100" style="font-family:Arial;font-size:11px;text-anchor:end" dy=".3em">A6</text>
	<line x1="200" y1="110" x2="210" y2="110" style="stroke:rgb(0, 0, 0);stroke-linecap:square;stroke-width:2" />
	<text x="214" y="110" style="font-family:Arial;font-size:11px;text-anchor:start" dy=".3em">D4</text>
	<line x1="310" y1="110" x2="320" y2="110" style="stroke:rgb(0, 0, 0);stroke-linecap:square;stroke-width:2" />
	<text x="306" y="110" style="font-family:Arial;font-size:11px;text-anchor:end" dy=".3em">A5</text>
	<line x1="200" y1="120" x2="210" y2="120" style="stroke:rgb(0, 0, 0);stroke-linecap:square;stroke-width:2" />
	<text x="214" y="120" style="font-family:Arial;font-size:11px;text-anchor:start" dy=".3em">D5</text>
	<line x1="310" y1="120" x2="320" y2="120" style="stroke:rgb(0, 0, 0);stroke-linecap:square;stroke-width:2" />
	<text x="306" y="120" style="font-family:Arial;font-size:11px;text-anchor:end" dy=".3em">A4</text>
	<line x1="200" y1="130" x2="210" y2="130" style="stroke:rgb(0, 0, 0);stroke-linecap:square;stroke-width:2" />
	<text x="214" y="130" style="font-family:Arial;font-size:11px;text-anchor:start" dy=".3em">D6</text>
	<line x1="310" y1="130" x2="320" y2="130" style="stroke:rgb(0, 0, 0);stroke-linecap:square;stroke-width:2" />
	<text x="306" y="130" style="font-family:Arial;font-size:11px;text-anchor:end" dy=".3em">A3</text>
	<line x1="200" y1="140" x2="210" y2="140" style="stroke:rgb(0, 0, 0);stroke-linecap:square;stroke-width:2" />
	<text x="214" y="140" style="font-family:Arial;font-size:11px;text-anchor:start" dy=".3em">D7</text>
	<line x1="310" y1="140" x2="320" y2="140" style="stroke:rgb(0, 0, 0);stroke-linecap:square;stroke-width:2" />
	<text x="306" y="140" style="font-family:Arial;font-size:11px;text-anchor:end" dy=".3em">A2</text>
	<line x1="200" y1="150" x2="210" y2="150" style="stroke:rgb(0, 0, 0);stroke-linecap:square;stroke-width:2" />
	<text x="214" y="150" style="font-family:Arial;font-size:11px;text-anchor:start" dy=".3em">D8</text>
	<line x1="310" y1="150" x2="320" y2="150" style="stroke:rgb(0, 0, 0);stroke-linecap:square;stroke-width:2" />
	<text x="306" y="150" style="font-family:Arial;font-size:11px;text-anchor:end" dy=".3em">A1</text>
	<line x1="200" y1="160" x2="210" y2="160" style="stroke:rgb(0, 0, 0);stroke-linecap:square;stroke-width:2" />
	<text x="214" y="160" style="font-family:Arial;font-size:11px;text-anchor:start" dy=".3em">D9</text>
	<line x1="310" y1="160" x2="320" y2="160" style="stroke:rgb(0, 0, 0);stroke-linecap:square;stroke-width:2" />
	<text x="306" y="160" style="font-family:Arial;font-size:11px;text-anchor:end" dy=".3em">A0</text>
	<line x1="200" y1="170" x2="210" y2="170" style="stroke:rgb(0, 0, 0);stroke-linecap:square;stroke-width:2" />
	<text x="214" y="170" style="font-family:Arial;font-size:11px;text-anchor:start" dy=".3em">D10</text>
	<line x1="310" y1="170" x2="320" y2="170" style="stroke:rgb(0, 0, 0);stroke-linecap:square;stroke-width:2" />
	<text x="306" y="170" style="font-family:Arial;font-size:11px;text-anchor:end" dy=".3em">AREF</text>
	<line x1="200" y1="180" x2="210" y2="180" style="stroke:rgb(0, 0, 0);stroke-linecap:square;stroke-width:2" />
	<text x="214" y="180" style="font-family:Arial;font-size:11px;text-anchor:start" dy=".3em">D11</text>
	<line x1="310" y1="180" x2="320" y2="180" style="stroke:rgb(0, 0, 0);stroke-linecap:square;stroke-width:2" />
	<text x="306" y="180" style="font-family:Arial;font-size:11px;text-anchor:end" dy=".3em">3V3</text>
	<line x1="200" y1="190" x2="210" y2="190" style="stroke:rgb(0, 0, 0);stroke-linecap:square;stroke-width:2" />
	<text x="214" y="190" style="font-family:Arial;font-size:11px;text-anchor:start" dy=".3em">D12</text>
	<line x1="310" y1="190" x2="320" y2="190" style="stroke:rgb(0, 0, 0);stroke-linecap:square;stroke-width:2" />
	<text x="306" y="190" style="font-family:Arial;font-size:11px;text-anchor:end" dy=".3em">D13</text>
	<ellipse cx="510" cy="150" rx="2" ry="2" style="fill-opacity:1;fill:rgb(0, 0, 0);stroke:rgb(0, 0, 0);stroke-width:2" />
	<ellipse cx="340" cy="120" rx="2" ry="2" style="fill-opacity:1;fill:rgb(0, 0, 0);stroke:rgb(0, 0, 0);stroke-width:2" />
	<ellipse cx="340" cy="160" rx="2" ry="2" style="fill-opacity:1;fill:rgb(0, 0, 0);stroke:rgb(0, 0, 0);stroke-width:2" />
	<ellipse cx="340" cy="180" rx="2" ry="2" style="fill-opacity:1;fill:rgb(0, 0, 0);stroke:rgb(0, 0, 0);stroke-width:2" />
</svg>